# Blender 4.4.0
# www.blender.org
o MiniSofa_Cube.007
v -9.124770 0.213486 7.075529
v -8.995184 0.213486 7.075529
v -8.958829 1.297816 7.121100
v -9.161125 0.705234 7.100523
v -8.067878 0.213486 7.075529
v -8.022101 0.705234 7.100523
v -9.161125 1.309152 7.100523
v -8.958829 0.705234 6.927336
v -8.995184 0.213486 6.952330
v -8.067878 0.213486 6.952330
v -8.022101 0.705234 6.927336
v -9.161125 0.705234 6.927336
v -9.124770 0.213486 6.952330
v -9.144135 0.969548 7.083534
v -9.144135 0.969548 6.944325
v -8.958829 0.969548 7.083534
v -8.039091 0.969548 7.083534
v -8.958829 0.969548 6.944325
v -8.039091 0.969548 6.944325
v -8.022101 0.546671 7.100523
v -9.161125 0.546671 7.100523
v -8.958829 0.546671 6.927336
v -8.022101 0.546671 6.927336
v -9.161125 0.546671 6.927336
v -8.958829 0.754935 7.100523
v -8.958829 0.693897 7.121100
v -8.836205 0.772027 7.140505
v -8.836205 1.295983 7.140505
v -8.848556 0.705234 7.100523
v -8.848556 1.309152 7.100523
v -8.980251 0.705234 7.100523
v -8.937407 0.705234 7.100523
v -8.958829 0.705234 7.121945
v -8.958829 0.726655 7.100523
v -8.937407 0.705234 7.100523
v -8.958829 0.726655 7.100523
v -8.937407 1.309152 7.100523
v -8.980251 1.309152 7.100523
v -7.987389 0.560162 7.100523
v -8.000912 0.546671 7.100523
v -8.001968 0.740603 7.100523
v -7.986993 0.725365 7.100523
v -7.997573 0.729762 7.100523
v -9.161125 0.957575 7.100523
v -9.161125 0.957575 6.927336
v -8.958829 0.957575 7.100523
v -8.022101 0.957575 7.100523
v -8.958829 0.957575 6.927336
v -8.022101 0.957575 6.927336
v -8.204514 0.213486 7.075529
v -8.204514 0.213486 6.952330
v -8.250290 0.705234 6.927336
v -8.250290 0.957575 7.100523
v -8.250290 0.957575 6.927336
v -8.250290 0.546671 6.927336
v -8.263140 0.969548 7.083534
v -8.263140 0.969548 6.944325
v -8.958829 0.213486 7.100523
v -9.161125 0.213486 7.100523
v -8.958829 0.213486 6.927336
v -9.161125 0.213486 6.927336
v -8.022101 0.213486 7.100523
v -8.022101 0.213486 6.927336
v -8.250290 0.213486 7.100523
v -8.250290 0.213486 6.927336
v -9.043999 0.003532 7.028848
v -9.160182 0.003532 7.028848
v -9.043999 0.003532 6.927620
v -9.160182 0.003532 6.927620
v -8.032830 0.003532 7.028848
v -8.032830 0.003532 6.927620
v -8.155334 0.003532 7.028848
v -8.155334 0.003532 6.927620
v -9.124770 0.213486 8.184195
v -8.995184 0.213486 8.184195
v -8.958829 1.297816 8.138623
v -9.161125 0.705234 8.159201
v -8.067878 0.213486 8.184195
v -8.022101 0.705234 8.159201
v -9.161125 1.309153 8.159201
v -8.958829 0.705234 8.332388
v -8.995184 0.213486 8.307394
v -8.067878 0.213486 8.307394
v -8.022101 0.705234 8.332388
v -9.161125 0.705234 8.332388
v -9.124770 0.213486 8.307394
v -9.144135 0.969548 8.176189
v -9.144135 0.969548 8.315398
v -8.958829 0.969548 8.176189
v -8.039091 0.969548 8.176189
v -8.958829 0.969548 8.315398
v -8.039091 0.969548 8.315398
v -8.022101 0.546671 8.159201
v -9.161125 0.546671 8.159201
v -8.958829 0.546671 8.332388
v -8.022101 0.546671 8.332388
v -9.161125 0.546671 8.332388
v -8.958829 0.754935 8.159201
v -8.958829 0.693897 8.138623
v -8.836205 0.772027 8.119219
v -8.836205 1.295983 8.119219
v -8.848556 0.705234 8.159201
v -8.848556 1.309153 8.159201
v -8.980251 0.705234 8.159201
v -8.937407 0.705234 8.159201
v -8.958829 0.705234 8.137779
v -8.958829 0.726655 8.159201
v -8.937407 0.705234 8.159201
v -8.958829 0.726655 8.159201
v -8.937407 1.309153 8.159201
v -8.980251 1.309153 8.159201
v -7.987389 0.560162 8.159201
v -8.000912 0.546671 8.159201
v -8.001968 0.740603 8.159201
v -7.986993 0.725365 8.159201
v -7.997573 0.729762 8.159201
v -9.161125 0.957575 8.159201
v -9.161125 0.957575 8.332388
v -8.958829 0.957575 8.159201
v -8.022101 0.957575 8.159201
v -8.958829 0.957575 8.332388
v -8.022101 0.957575 8.332388
v -8.204514 0.213486 8.184195
v -8.204514 0.213486 8.307394
v -8.250290 0.705234 8.332388
v -8.250290 0.957575 8.159201
v -8.250290 0.957575 8.332388
v -8.250290 0.546671 8.332388
v -8.263140 0.969548 8.176189
v -8.263140 0.969548 8.315398
v -8.958829 0.213486 8.159201
v -9.161125 0.213486 8.159201
v -8.958829 0.213486 8.332388
v -9.161125 0.213486 8.332388
v -8.022101 0.213486 8.159201
v -8.022101 0.213486 8.332388
v -8.250290 0.213486 8.159201
v -8.250290 0.213486 8.332388
v -9.043999 0.003532 8.230876
v -9.160182 0.003532 8.230876
v -9.043999 0.003532 8.332104
v -9.160182 0.003532 8.332104
v -8.032830 0.003532 8.230876
v -8.032830 0.003532 8.332104
v -8.155334 0.003532 8.230876
v -8.155334 0.003532 8.332104
vn -0.0000 -0.2170 0.9762
vn -0.9736 -0.2281 -0.0000
vn -0.0000 -1.0000 -0.0000
vn 0.9864 0.1647 -0.0000
vn 0.9864 0.1646 -0.0000
vn -0.0000 0.1169 -0.9931
vn 0.9740 -0.2265 -0.0000
vn -0.9861 0.1663 -0.0000
vn -0.0000 -0.2170 -0.9762
vn -0.0000 0.1169 0.9931
vn -0.0000 -0.0000 -1.0000
vn -1.0000 -0.0000 -0.0000
vn 0.4678 0.8839 -0.0000
vn 0.4677 0.8839 -0.0000
vn 1.0000 -0.0000 -0.0000
vn -0.0000 1.0000 -0.0000
vn -0.0000 -0.0000 1.0000
vn -0.4696 0.4696 0.7476
vn -0.0977 0.2158 0.9715
vn -0.1687 0.1114 0.9794
vn 0.6927 -0.0000 -0.7212
vn -0.5760 0.8174 -0.0000
vn -0.5761 0.8174 -0.0000
vn -0.0000 0.8174 0.5761
vn -0.0000 0.8174 -0.5761
vn 0.5761 0.8174 -0.0000
vn 0.5760 0.8174 -0.0000
vn -0.4696 0.4696 -0.7476
vn -0.2569 0.1696 0.9514
vn -0.0976 0.2158 -0.9715
vn 0.6927 -0.0000 0.7212
vn 0.6928 -0.0000 0.7212
vn -0.0000 0.8174 0.5760
vn 0.9833 -0.1818 -0.0000
vn 0.7063 -0.7079 -0.0000
vn -0.4677 0.8839 -0.0000
vn -0.4678 0.8839 -0.0000
vn 0.9555 -0.0000 -0.2952
vn 0.7294 0.6841 -0.0000
vn 0.7294 0.6840 -0.0000
vn -0.6927 -0.0000 -0.7212
vn 0.7132 0.7009 -0.0000
vn 0.0150 0.9999 -0.0000
vn 1.0000 -0.0024 -0.0000
vn 0.9555 -0.0000 0.2951
vn 0.9554 -0.0000 0.2952
vn -0.6927 -0.0000 0.7212
vn -0.6928 -0.0000 0.7212
vn 0.7061 -0.0526 0.7061
vn -0.7475 -0.0493 0.6625
vn -0.7475 -0.0493 -0.6625
vn 0.7061 -0.0526 -0.7061
vn 0.0001 -0.0000 -1.0000
vt 0.146735 0.811323
vt 0.116668 0.763255
vt 0.146735 0.758247
vt 0.956173 0.695630
vt 0.931157 0.745399
vt 0.925728 0.692055
vt 0.761479 0.318836
vt 0.786667 0.347744
vt 0.761479 0.347744
vt 0.615064 0.318836
vt 0.640251 0.349317
vt 0.615064 0.349317
vt 0.988191 0.517086
vt 0.963178 0.467618
vt 0.988191 0.464664
vt 0.589703 0.921717
vt 0.561198 0.873616
vt 0.589703 0.868803
vt 0.146732 0.846131
vt 0.116668 0.894006
vt 0.113200 0.840527
vt 0.954434 0.909062
vt 0.929418 0.859168
vt 0.954434 0.856237
vt 0.143643 0.926237
vt 0.118629 0.975810
vt 0.113200 0.922649
vt 0.912764 0.304196
vt 0.884256 0.352488
vt 0.880968 0.298844
vt 0.857350 0.304430
vt 0.827283 0.352498
vt 0.823814 0.298844
vt 0.929421 0.777115
vt 0.954436 0.826884
vt 0.923991 0.830459
vt 0.712674 0.347744
vt 0.737861 0.318836
vt 0.737861 0.347744
vt 0.663869 0.349317
vt 0.689056 0.318836
vt 0.689056 0.349317
vt 0.988191 0.388623
vt 0.963178 0.438092
vt 0.957748 0.385028
vt 0.900370 0.861606
vt 0.871866 0.909707
vt 0.868577 0.856237
vt 0.872045 0.697079
vt 0.902110 0.744954
vt 0.868577 0.750559
vt 0.643767 0.872370
vt 0.618751 0.922265
vt 0.613321 0.868803
vt 0.941811 0.301793
vt 0.966825 0.351365
vt 0.936382 0.354954
vt 0.871866 0.778974
vt 0.900373 0.827267
vt 0.868577 0.832619
vt 0.548755 0.668437
vt 0.485972 0.618102
vt 0.548755 0.618102
vt 0.441186 0.318318
vt 0.401734 0.361410
vt 0.401734 0.318318
vt 0.868819 0.275226
vt 0.874153 0.016929
vt 0.874153 0.270106
vt 0.238441 0.054901
vt 0.295218 0.318318
vt 0.238441 0.318318
vt 0.671104 0.618102
vt 0.588207 0.668437
vt 0.588207 0.618102
vt 0.548755 0.441805
vt 0.588207 0.385028
vt 0.588207 0.441805
vt 0.196916 0.691537
vt 0.114030 0.734629
vt 0.114030 0.691537
vt 0.062144 0.054901
vt 0.238441 0.011809
vt 0.503971 0.361410
vt 0.441186 0.361410
vt 0.380642 0.905141
vt 0.415280 0.951248
vt 0.380642 0.951248
vt 0.380642 0.676295
vt 0.415280 0.732042
vt 0.380642 0.732042
vt 0.485972 0.441805
vt 0.074584 0.734629
vt 0.011809 0.691537
vt 0.074584 0.691537
vt 0.089582 0.761119
vt 0.044577 0.911377
vt 0.044577 0.761119
vt 0.671104 0.385028
vt 0.671104 0.441805
vt 0.114030 0.428120
vt 0.196916 0.428120
vt 0.318836 0.361410
vt 0.318836 0.318318
vt 0.931361 0.440693
vt 0.868577 0.668437
vt 0.868577 0.611660
vt 0.591446 0.054901
vt 0.441186 0.054901
vt 0.062144 0.318318
vt 0.401734 0.054901
vt 0.931361 0.430033
vt 0.868577 0.435363
vt 0.868577 0.385028
vt 0.934130 0.435363
vt 0.926031 0.435363
vt 0.823814 0.011809
vt 0.823814 0.275226
vt 0.039247 0.908505
vt 0.419507 0.955472
vt 0.376415 0.955472
vt 0.376415 0.905137
vt 0.376415 0.728840
vt 0.415280 0.676295
vt 0.419507 0.728840
vt 0.419507 0.905137
vt 0.419507 0.672063
vt 0.415280 0.905141
vt 0.376415 0.672063
vt 0.011809 0.318318
vt 0.485972 0.385028
vt 0.548755 0.385028
vt 0.053098 0.048682
vt 0.011809 0.054901
vt 0.020855 0.048682
vt 0.020855 0.018028
vt 0.062144 0.011809
vt 0.053098 0.018028
vt 0.011809 0.011809
vt 0.283828 0.018028
vt 0.295218 0.054901
vt 0.283828 0.048682
vt 0.249830 0.048682
vt 0.249830 0.018028
vt 0.295218 0.011809
vt 0.615064 0.062144
vt 0.677847 0.011809
vt 0.677847 0.062144
vt 0.401734 0.011809
vt 0.717299 0.011809
vt 0.800196 0.062144
vt 0.717299 0.062144
vt 0.717299 0.295218
vt 0.677847 0.238441
vt 0.717299 0.238441
vt 0.114030 0.385028
vt 0.238441 0.361410
vt 0.503971 0.011809
vt 0.441186 0.011809
vt 0.313932 0.951248
vt 0.348570 0.905141
vt 0.348570 0.951248
vt 0.313932 0.732042
vt 0.348570 0.676295
vt 0.348570 0.732042
vt 0.615064 0.238441
vt 0.011809 0.428120
vt 0.074584 0.385028
vt 0.074584 0.428120
vt 0.602915 0.845185
vt 0.557910 0.694927
vt 0.602915 0.694927
vt 0.800196 0.295218
vt 0.800196 0.238441
vt 0.318836 0.011809
vt 0.318836 0.054901
vt 0.220534 0.728840
vt 0.283318 0.672063
vt 0.283318 0.899807
vt 0.220534 0.955472
vt 0.277988 0.905137
vt 0.283318 0.910467
vt 0.286087 0.905137
vt 0.608245 0.842312
vt 0.608245 0.692055
vt 0.352797 0.955472
vt 0.352797 0.905137
vt 0.309705 0.728840
vt 0.313932 0.676295
vt 0.309705 0.905137
vt 0.313932 0.905141
vt 0.352797 0.672063
vt 0.352797 0.728840
vt 0.615064 0.295218
vt 0.677847 0.295218
vt 0.053098 0.324537
vt 0.020855 0.324537
vt 0.062144 0.361410
vt 0.020855 0.355191
vt 0.053098 0.355191
vt 0.011809 0.361410
vt 0.283828 0.355191
vt 0.283828 0.324537
vt 0.249830 0.324537
vt 0.295218 0.361410
vt 0.249830 0.355191
vt 0.033917 0.911377
vt 0.011809 0.761119
vt 0.033917 0.761119
vt 0.844959 0.385028
vt 0.828283 0.638497
vt 0.828283 0.394976
vt 0.735822 0.672063
vt 0.739244 0.935480
vt 0.735822 0.935480
vt 0.697939 0.394976
vt 0.697939 0.638497
vt 0.802308 0.905296
vt 0.807447 0.913956
vt 0.762940 0.911159
vt 0.879479 0.275226
vt 0.443125 0.935480
vt 0.450161 0.672063
vt 0.455491 0.930150
vt 0.952643 0.275226
vt 0.925205 0.269896
vt 0.930535 0.011809
vt 0.901587 0.011809
vt 0.879479 0.011809
vt 0.694722 0.648445
vt 0.694722 0.385028
vt 0.840073 0.935480
vt 0.834800 0.672063
vt 0.840073 0.672063
vt 0.798897 0.677578
vt 0.811182 0.672063
vt 0.808502 0.911307
vt 0.458622 0.385028
vt 0.462354 0.648445
vt 0.458622 0.648445
vt 0.811182 0.910173
vt 0.220534 0.385028
vt 0.694722 0.672063
vt 0.635683 0.694927
vt 0.613575 0.845185
vt 0.613575 0.694927
vt 0.486051 0.695369
vt 0.530557 0.692572
vt 0.525418 0.701231
vt 0.531612 0.695220
vt 0.534292 0.934464
vt 0.522008 0.928950
vt 0.534292 0.696354
vt 0.113200 0.816909
vt 0.956173 0.748337
vt 0.786667 0.318836
vt 0.640251 0.318836
vt 0.957748 0.520682
vt 0.557910 0.927086
vt 0.146732 0.899031
vt 0.923988 0.912630
vt 0.143643 0.978758
vt 0.912764 0.357286
vt 0.857350 0.357506
vt 0.954436 0.774177
vt 0.712674 0.318836
vt 0.663869 0.318836
vt 0.988191 0.441046
vt 0.900370 0.914520
vt 0.902110 0.692055
vt 0.643767 0.925196
vt 0.966825 0.298844
vt 0.900373 0.774177
vt 0.485972 0.668437
vt 0.868819 0.011809
vt 0.671104 0.668437
vt 0.196916 0.734629
vt 0.503971 0.318318
vt 0.011809 0.734629
vt 0.089582 0.911377
vt 0.931361 0.668437
vt 0.591446 0.318318
vt 0.931361 0.385028
vt 0.931308 0.435363
vt 0.039247 0.758247
vt 0.615064 0.011809
vt 0.800196 0.011809
vt 0.196916 0.385028
vt 0.503971 0.054901
vt 0.011809 0.385028
vt 0.557910 0.845185
vt 0.220534 0.905137
vt 0.220534 0.672063
vt 0.283318 0.955472
vt 0.283264 0.905137
vt 0.309705 0.955472
vt 0.309705 0.672063
vt 0.011809 0.911377
vt 0.844959 0.648445
vt 0.739244 0.672063
vt 0.762861 0.905887
vt 0.766347 0.914473
vt 0.450161 0.935480
vt 0.443125 0.672063
vt 0.455491 0.677393
vt 0.952643 0.011809
vt 0.930535 0.275226
vt 0.925205 0.017139
vt 0.901587 0.275226
vt 0.834800 0.935480
vt 0.804147 0.672169
vt 0.462354 0.385028
vt 0.220534 0.648445
vt 0.694722 0.935480
vt 0.635683 0.845185
vt 0.485972 0.700641
vt 0.489457 0.692055
vt 0.527257 0.934359
s 1
f 5/1/1 72/2/1 70/3/1
f 51/4/2 72/5/2 50/6/2
f 67/7/3 68/8/3 66/9/3
f 72/10/3 71/11/3 70/12/3
f 10/13/4 70/14/5 71/15/5
f 13/16/6 68/17/6 69/18/6
f 10/19/6 73/20/6 51/21/6
f 9/22/7 66/23/7 68/24/7
f 13/25/8 67/26/8 1/27/8
f 1/28/1 66/29/1 2/30/1
f 78/31/9 145/32/9 123/33/9
f 145/34/2 124/35/2 123/36/2
f 141/37/3 140/38/3 139/39/3
f 144/40/3 145/41/3 143/42/3
f 83/43/4 143/44/4 78/45/4
f 86/46/10 141/47/10 82/48/10
f 146/49/10 83/50/10 124/51/10
f 82/52/7 139/53/7 75/54/7
f 140/55/8 86/56/8 74/57/8
f 139/58/9 74/59/9 75/60/9
f 12/61/11 48/62/11 8/63/11
f 4/64/12 24/65/12 21/66/12
f 38/67/13 76/68/14 3/69/13
f 64/70/3 135/71/3 137/72/3
f 60/73/11 24/74/11 22/75/11
f 52/76/11 23/77/11 55/78/11
f 62/79/15 23/80/15 20/81/15
f 58/82/3 65/83/3 64/70/3
f 4/64/12 45/84/12 12/85/12
f 16/86/16 15/87/16 14/88/16
f 17/89/16 57/90/16 56/91/16
f 8/63/11 54/92/11 52/76/11
f 11/93/15 47/94/15 6/95/15
f 4/96/11 38/97/11 31/98/11
f 20/81/15 11/93/15 6/95/15
f 55/78/11 63/99/11 65/100/11
f 22/75/11 12/61/11 8/63/11
f 62/79/15 93/101/15 135/102/15
f 21/66/12 61/103/12 59/104/12
f 35/105/17 47/106/17 53/107/17
f 80/108/12 4/64/12 77/109/12
f 58/82/3 137/72/3 131/110/3
f 94/111/12 4/64/12 21/66/12
f 31/112/17 46/113/17 44/114/17
f 31/112/18 26/115/19 34/116/20
f 80/117/16 38/67/16 7/118/16
f 3/119/21 31/98/21 38/97/21
f 14/88/22 45/120/23 44/121/22
f 56/91/24 46/122/24 53/123/24
f 14/88/24 46/122/24 16/86/24
f 19/124/25 54/125/25 57/90/25
f 15/87/25 48/126/25 45/120/25
f 17/89/26 49/127/27 19/124/27
f 57/90/25 48/126/25 18/128/25
f 17/89/24 53/123/24 47/129/24
f 132/130/3 58/82/3 131/110/3
f 22/75/11 65/100/11 60/73/11
f 52/76/11 49/131/11 11/132/11
f 56/91/16 18/128/16 16/86/16
f 8/63/11 55/78/11 22/75/11
f 2/133/3 59/134/3 1/135/3
f 13/136/3 60/137/3 9/138/3
f 1/135/3 61/139/3 13/136/3
f 10/140/3 62/141/3 5/142/3
f 9/138/3 58/82/3 2/133/3
f 5/142/3 64/70/3 50/143/3
f 51/144/3 63/145/3 10/140/3
f 50/143/3 65/83/3 51/144/3
f 121/146/17 85/147/17 81/148/17
f 97/149/12 77/109/12 94/111/12
f 97/150/17 133/151/17 95/152/17
f 96/153/17 125/154/17 128/155/17
f 96/156/15 135/102/15 93/101/15
f 138/157/3 131/110/3 137/72/3
f 118/158/12 77/109/12 85/159/12
f 88/160/16 89/161/16 87/162/16
f 130/163/16 90/164/16 129/165/16
f 127/166/17 81/148/17 125/154/17
f 120/167/15 84/168/15 79/169/15
f 111/170/17 77/171/17 104/172/17
f 84/168/15 93/101/15 79/169/15
f 136/173/17 128/155/17 138/174/17
f 85/147/17 95/152/17 81/148/17
f 134/175/12 94/111/12 132/176/12
f 126/177/11 79/178/11 108/179/11
f 117/180/11 109/181/11 104/182/11
f 104/182/28 107/181/29 99/183/30
f 76/184/31 104/172/32 99/185/32
f 117/186/23 88/160/22 87/162/23
f 129/165/25 119/187/25 89/161/25
f 119/187/25 87/162/25 89/161/25
f 127/188/33 92/189/33 130/163/33
f 88/160/33 121/190/24 91/191/24
f 92/189/26 120/192/27 90/164/27
f 121/190/24 130/163/33 91/191/24
f 90/164/25 126/193/25 129/165/25
f 138/174/17 95/152/17 133/151/17
f 122/194/17 125/154/17 84/195/17
f 91/191/16 129/165/16 89/161/16
f 128/155/17 81/148/17 95/152/17
f 132/130/3 75/196/3 74/197/3
f 133/198/3 86/199/3 82/200/3
f 134/201/3 74/197/3 86/199/3
f 135/71/3 83/202/3 78/203/3
f 131/110/3 82/200/3 75/196/3
f 137/72/3 78/203/3 123/204/3
f 136/205/3 124/206/3 83/202/3
f 138/157/3 123/204/3 124/206/3
f 132/176/12 21/66/12 59/104/12
f 37/207/11 29/208/11 32/209/11
f 102/210/34 27/211/34 100/212/34
f 112/213/35 40/214/35 39/215/35
f 101/216/15 27/211/15 28/217/15
f 6/218/11 42/219/11 40/220/11
f 76/68/36 37/221/37 3/69/37
f 98/222/12 34/223/12 106/224/12
f 102/225/3 106/226/3 32/227/3
f 103/228/16 37/221/16 110/229/16
f 27/211/38 30/230/38 28/217/38
f 103/231/39 28/217/40 30/230/40
f 113/232/3 20/233/3 40/234/3
f 35/235/11 25/236/11 43/237/11
f 32/209/41 3/119/41 37/207/41
f 114/238/42 42/239/42 41/240/42
f 41/241/11 42/219/11 43/237/11
f 41/240/43 98/242/43 114/238/43
f 39/215/44 115/243/44 112/213/44
f 102/244/17 110/245/17 105/246/17
f 113/247/17 115/248/17 79/249/17
f 103/231/45 100/212/46 101/216/45
f 116/250/17 98/251/17 108/252/17
f 76/184/47 105/246/48 110/245/47
f 114/253/17 116/250/17 115/248/17
f 5/1/1 50/254/1 72/2/1
f 51/4/2 73/255/2 72/5/2
f 67/7/3 69/256/3 68/8/3
f 72/10/3 73/257/3 71/11/3
f 10/13/4 5/258/4 70/14/5
f 13/16/6 9/259/6 68/17/6
f 10/19/6 71/260/6 73/20/6
f 9/22/7 2/261/7 66/23/7
f 13/25/8 69/262/8 67/26/8
f 1/28/1 67/263/1 66/29/1
f 78/31/9 143/264/9 145/32/9
f 145/34/2 146/265/2 124/35/2
f 141/37/3 142/266/3 140/38/3
f 144/40/3 146/267/3 145/41/3
f 83/43/4 144/268/4 143/44/4
f 86/46/10 142/269/10 141/47/10
f 146/49/10 144/270/10 83/50/10
f 82/52/7 141/271/7 139/53/7
f 140/55/8 142/272/8 86/56/8
f 139/58/9 140/273/9 74/59/9
f 12/61/11 45/274/11 48/62/11
f 4/64/12 12/85/12 24/65/12
f 38/67/13 111/275/14 76/68/14
f 64/70/3 62/141/3 135/71/3
f 60/73/11 61/276/11 24/74/11
f 52/76/11 11/132/11 23/77/11
f 62/79/15 63/277/15 23/80/15
f 58/82/3 60/137/3 65/83/3
f 4/64/12 44/278/12 45/84/12
f 16/86/16 18/128/16 15/87/16
f 17/89/16 19/124/16 57/90/16
f 8/63/11 48/62/11 54/92/11
f 11/93/15 49/279/15 47/94/15
f 4/96/11 7/280/11 38/97/11
f 20/81/15 23/80/15 11/93/15
f 55/78/11 23/77/11 63/99/11
f 22/75/11 24/74/11 12/61/11
f 62/79/15 20/81/15 93/101/15
f 21/66/12 24/65/12 61/103/12
f 46/113/17 36/116/17 35/105/17
f 35/105/17 6/281/17 47/106/17
f 53/107/17 46/113/17 35/105/17
f 80/108/12 7/282/12 4/64/12
f 58/82/3 64/70/3 137/72/3
f 94/111/12 77/109/12 4/64/12
f 44/114/17 4/283/17 31/112/17
f 31/112/17 36/116/17 46/113/17
f 34/116/20 35/105/17 36/116/17
f 26/115/19 32/105/49 33/284/50
f 34/116/20 36/116/17 31/112/18
f 26/115/19 33/284/50 34/116/20
f 80/117/16 111/275/16 38/67/16
f 3/119/21 26/285/21 31/98/21
f 14/88/22 15/87/23 45/120/23
f 56/91/24 16/86/24 46/122/24
f 14/88/24 44/121/24 46/122/24
f 19/124/25 49/127/25 54/125/25
f 15/87/25 18/128/25 48/126/25
f 17/89/26 47/129/26 49/127/27
f 57/90/25 54/125/25 48/126/25
f 17/89/24 56/91/24 53/123/24
f 132/130/3 59/134/3 58/82/3
f 22/75/11 55/78/11 65/100/11
f 52/76/11 54/92/11 49/131/11
f 56/91/16 57/90/16 18/128/16
f 8/63/11 52/76/11 55/78/11
f 2/133/3 58/82/3 59/134/3
f 13/136/3 61/139/3 60/137/3
f 1/135/3 59/134/3 61/139/3
f 10/140/3 63/145/3 62/141/3
f 9/138/3 60/137/3 58/82/3
f 5/142/3 62/141/3 64/70/3
f 51/144/3 65/83/3 63/145/3
f 50/143/3 64/70/3 65/83/3
f 121/146/17 118/286/17 85/147/17
f 97/149/12 85/159/12 77/109/12
f 97/150/17 134/287/17 133/151/17
f 96/153/17 84/195/17 125/154/17
f 96/156/15 136/288/15 135/102/15
f 138/157/3 133/198/3 131/110/3
f 118/158/12 117/289/12 77/109/12
f 88/160/16 91/191/16 89/161/16
f 130/163/16 92/189/16 90/164/16
f 127/166/17 121/146/17 81/148/17
f 120/167/15 122/290/15 84/168/15
f 111/170/17 80/291/17 77/171/17
f 84/168/15 96/156/15 93/101/15
f 136/173/17 96/153/17 128/155/17
f 85/147/17 97/150/17 95/152/17
f 134/175/12 97/149/12 94/111/12
f 108/179/11 109/181/11 119/292/11
f 126/177/11 120/293/11 79/178/11
f 108/179/11 119/292/11 126/177/11
f 104/182/11 77/294/11 117/180/11
f 117/180/11 119/292/11 109/181/11
f 109/181/17 108/179/17 107/181/29
f 106/295/51 105/179/52 99/183/30
f 104/182/28 109/181/17 107/181/29
f 107/181/29 106/295/51 99/183/30
f 76/184/31 111/170/31 104/172/32
f 117/186/23 118/296/22 88/160/22
f 129/165/25 126/193/25 119/187/25
f 119/187/25 117/186/25 87/162/25
f 127/188/33 122/297/33 92/189/33
f 88/160/33 118/296/33 121/190/24
f 92/189/26 122/297/26 120/192/27
f 121/190/24 127/188/33 130/163/33
f 90/164/25 120/192/25 126/193/25
f 138/174/17 128/155/17 95/152/17
f 122/194/17 127/166/17 125/154/17
f 91/191/16 130/163/16 129/165/16
f 128/155/17 125/154/17 81/148/17
f 132/130/3 131/110/3 75/196/3
f 133/198/3 134/201/3 86/199/3
f 134/201/3 132/130/3 74/197/3
f 135/71/3 136/205/3 83/202/3
f 131/110/3 133/198/3 82/200/3
f 137/72/3 135/71/3 78/203/3
f 136/205/3 138/157/3 124/206/3
f 138/157/3 137/72/3 123/204/3
f 132/176/12 94/111/12 21/66/12
f 37/207/11 30/298/11 29/208/11
f 102/210/34 29/299/34 27/211/34
f 112/213/35 113/300/35 40/214/35
f 101/216/15 100/212/15 27/211/15
f 40/220/11 20/301/11 6/218/11
f 6/218/11 43/237/11 42/219/11
f 42/219/11 39/302/53 40/220/11
f 76/68/36 110/229/36 37/221/37
f 106/224/12 107/303/12 98/222/12
f 98/222/12 25/304/12 34/223/12
f 34/223/12 33/305/12 106/224/12
f 32/227/3 29/306/3 102/225/3
f 102/225/3 105/307/3 106/226/3
f 106/226/3 33/308/3 32/227/3
f 103/228/16 30/309/16 37/221/16
f 27/211/38 29/299/38 30/230/38
f 103/231/39 101/216/39 28/217/40
f 113/232/3 93/310/3 20/233/3
f 43/237/11 6/218/11 35/235/11
f 35/235/11 34/311/11 25/236/11
f 25/236/11 41/241/11 43/237/11
f 32/209/41 26/285/41 3/119/41
f 114/238/42 115/312/42 42/239/42
f 41/240/43 25/313/43 98/242/43
f 39/215/44 42/314/44 115/243/44
f 102/244/17 103/315/17 110/245/17
f 79/249/17 93/316/17 113/247/17
f 113/247/17 112/317/17 115/248/17
f 115/248/17 116/250/17 79/249/17
f 103/231/45 102/210/46 100/212/46
f 108/252/17 79/249/17 116/250/17
f 116/250/17 114/253/17 98/251/17
f 98/251/17 107/318/17 108/252/17
f 76/184/47 99/185/48 105/246/48
