# Blender 4.4.0
# www.blender.org
mtllib WindowWall.mtl
o Plane.001
v -0.500000 0.000000 0.500000
v 0.500000 0.000000 0.500000
v -0.500000 0.000000 -0.500000
v 0.500000 0.000000 -0.500000
v -0.500000 0.000000 0.000000
v 0.000000 0.000000 0.500000
v 0.500000 0.000000 0.000000
v 0.000000 0.000000 -0.500000
v -0.500000 0.000000 0.250000
v 0.250000 0.000000 0.500000
v 0.500000 0.000000 -0.250000
v -0.250000 0.000000 -0.500000
v -0.500000 0.000000 -0.250000
v -0.250000 0.000000 0.500000
v 0.500000 0.000000 0.250000
v 0.250000 0.000000 -0.500000
v 0.000000 0.000000 -0.250000
v -0.250000 0.000000 -0.250000
v 0.250000 0.000000 -0.250000
v -0.125000 0.000000 0.500000
v 0.248801 0.000000 0.000000
v 0.248801 0.000000 0.500000
v 0.000000 0.000000 -0.125000
v 0.000000 0.000000 0.375000
v -0.125000 0.000000 0.000000
v 0.248801 0.000000 0.250000
v -0.125000 0.000000 0.250000
v -0.125000 0.000000 -0.250000
v 0.248801 0.000000 -0.250000
v 0.248801 0.000000 -0.125000
v -0.125000 0.000000 -0.125000
v -0.125000 0.000000 0.375000
v 0.248801 0.000000 0.375000
v 0.248801 0.000000 0.125000
v -0.125000 0.000000 0.125000
vn -0.0000 1.0000 -0.0000
vt 1.000000 0.750000
vt 0.750000 1.000000
vt 0.750000 0.750000
vt 0.375000 0.750000
vt 0.500000 1.000000
vt 0.250000 1.000000
vt 0.250000 0.750000
vt 0.000000 1.000000
vt 0.000000 0.750000
vt 0.625000 0.750000
vt 0.500000 0.625000
vt 0.500000 0.750000
vt 0.500000 0.000000
vt 0.625000 0.125000
vt 0.500000 0.125000
vt 0.625000 0.375000
vt 0.750000 0.000000
vt 0.250000 0.000000
vt 0.375000 0.375000
vt 1.000000 1.000000
vt 0.375000 0.625000
vt 0.625000 0.625000
vt 0.375000 0.125000
vt 0.375000 0.000000
vt 0.625000 0.000000
vt 1.000000 0.500000
vt 0.625000 0.500000
vt 1.000000 0.250000
vt 1.000000 0.000000
vt 0.625000 0.250000
vt 0.000000 0.250000
vt 0.000000 0.000000
vt 0.375000 0.250000
vt 0.000000 0.500000
vt 0.375000 0.500000
s 0
f 11/1/1 16/2/1 19/3/1
f 28/4/1 8/5/1 12/6/1
f 18/7/1 3/8/1 13/9/1
f 29/10/1 16/2/1 8/5/1
f 23/11/1 29/10/1 17/12/1
f 6/13/1 33/14/1 24/15/1
f 19/3/1 34/16/1 10/17/1
f 14/18/1 35/19/1 18/7/1
f 11/1/1 4/20/1 16/2/1
f 12/6/1 18/7/1 28/4/1
f 28/4/1 17/12/1 8/5/1
f 18/7/1 12/6/1 3/8/1
f 8/5/1 17/12/1 29/10/1
f 29/10/1 19/3/1 16/2/1
f 28/4/1 31/21/1 23/11/1
f 23/11/1 30/22/1 29/10/1
f 17/12/1 28/4/1 23/11/1
f 32/23/1 20/24/1 6/13/1
f 6/13/1 22/25/1 33/14/1
f 24/15/1 32/23/1 6/13/1
f 7/26/1 11/1/1 19/3/1
f 19/3/1 29/10/1 30/22/1
f 19/3/1 30/22/1 21/27/1
f 15/28/1 7/26/1 19/3/1
f 10/17/1 2/29/1 15/28/1
f 33/14/1 22/25/1 10/17/1
f 26/30/1 33/14/1 10/17/1
f 10/17/1 15/28/1 19/3/1
f 19/3/1 21/27/1 34/16/1
f 34/16/1 26/30/1 10/17/1
f 9/31/1 1/32/1 14/18/1
f 14/18/1 20/24/1 32/23/1
f 14/18/1 32/23/1 27/33/1
f 5/34/1 9/31/1 14/18/1
f 18/7/1 13/9/1 5/34/1
f 31/21/1 28/4/1 18/7/1
f 25/35/1 31/21/1 18/7/1
f 18/7/1 5/34/1 14/18/1
f 14/18/1 27/33/1 35/19/1
f 35/19/1 25/35/1 18/7/1
